HIERARCHY
ROOT joint_Root
{
	OFFSET 0.0 0.0 0.0
	CHANNELS 6 Xposition Yposition Zposition Zrotation Xrotation Yrotation 
	JOINT Hips
	{
		OFFSET -17.1583 93.1646 452.98
		CHANNELS 6 Xposition Yposition Zposition Zrotation Xrotation Yrotation 
		JOINT Spine
		{
			OFFSET 15.7357 0.0 0.0
			CHANNELS 6 Xposition Yposition Zposition Zrotation Xrotation Yrotation 
			JOINT Chest
			{
				OFFSET 8.98455 -0.406207 0.0
				CHANNELS 6 Xposition Yposition Zposition Zrotation Xrotation Yrotation 
				JOINT Neck
				{
					OFFSET 16.3773 0.0 0.0
					CHANNELS 6 Xposition Yposition Zposition Zrotation Xrotation Yrotation 
					JOINT Head
					{
						OFFSET 6.45672 0.0 0.0
						CHANNELS 6 Xposition Yposition Zposition Zrotation Xrotation Yrotation 
						End Site
						{
							OFFSET 0.0 0.0 0.0
						}
					}
				}
				JOINT Shoulder_L
				{
					OFFSET 12.9942 -0.242716 4.98039
					CHANNELS 6 Xposition Yposition Zposition Zrotation Xrotation Yrotation 
					JOINT UpperArm_L
					{
						OFFSET 5.34809 0.0 0.0
						CHANNELS 6 Xposition Yposition Zposition Zrotation Xrotation Yrotation 
						JOINT LowerArm_L
						{
							OFFSET 24.3286 1.87007e-05 0.0
							CHANNELS 6 Xposition Yposition Zposition Zrotation Xrotation Yrotation 
							JOINT Hand_L
							{
								OFFSET 22.2916 0.0 0.0
								CHANNELS 6 Xposition Yposition Zposition Zrotation Xrotation Yrotation 
								End Site
								{
									OFFSET 0.0 0.0 0.0
								}
							}
						}
					}
				}
				JOINT Shoulder_R
				{
					OFFSET 12.9945 -0.242716 -4.98039
					CHANNELS 6 Xposition Yposition Zposition Zrotation Xrotation Yrotation 
					JOINT UpperArm_R
					{
						OFFSET -5.34813 0.0 0.0
						CHANNELS 6 Xposition Yposition Zposition Zrotation Xrotation Yrotation 
						JOINT LowerArm_R
						{
							OFFSET -24.3289 0.000322201 0.0
							CHANNELS 6 Xposition Yposition Zposition Zrotation Xrotation Yrotation 
							JOINT Hand_R
							{
								OFFSET -22.2915 -0.000108084 0.0
								CHANNELS 6 Xposition Yposition Zposition Zrotation Xrotation Yrotation 
								End Site
								{
									OFFSET 0.0 0.0 0.0
								}
							}
						}
					}
				}
			}
		}
		JOINT UpperLeg_L
		{
			OFFSET -2.19248 -6.46944 0.0
			CHANNELS 6 Xposition Yposition Zposition Zrotation Xrotation Yrotation 
			JOINT LowerLeg_L
			{
				OFFSET 39.0811 0.0 -1.23785e-05
				CHANNELS 6 Xposition Yposition Zposition Zrotation Xrotation Yrotation 
				JOINT Foot_L
				{
					OFFSET 40.9854 0.0 -1.26872e-05
					CHANNELS 6 Xposition Yposition Zposition Zrotation Xrotation Yrotation 
					JOINT Toes_L
					{
						OFFSET 11.7543 0.0 0.0
						CHANNELS 6 Xposition Yposition Zposition Zrotation Xrotation Yrotation 
						End Site
						{
							OFFSET 0.0 0.0 0.0
						}
					}
				}
			}
		}
		JOINT UpperLeg_R
		{
			OFFSET -2.19251 6.46944 0.0
			CHANNELS 6 Xposition Yposition Zposition Zrotation Xrotation Yrotation 
			JOINT LowerLeg_R
			{
				OFFSET -39.0811 -0.00228153 -0.0401928
				CHANNELS 6 Xposition Yposition Zposition Zrotation Xrotation Yrotation 
				JOINT Foot_R
				{
					OFFSET -40.9854 0.0 0.0
					CHANNELS 6 Xposition Yposition Zposition Zrotation Xrotation Yrotation 
					JOINT Toes_R
					{
						OFFSET -11.7543 0.0 0.0
						CHANNELS 6 Xposition Yposition Zposition Zrotation Xrotation Yrotation 
						End Site
						{
							OFFSET 0.0 0.0 0.0
						}
					}
				}
			}
		}
	}
}
MOTION
Frames:	9
Frame Time:	0.0333333
0.000000 0.000000 0.000000 0.000000 0.000000 -0.000000 -3.767820 92.917500 1.732530 86.056200 1.662210 1.785470 15.735700 0.000005 -0.000001 85.400400 86.500900 -93.177000 8.984550 -0.406207 -0.000000 -0.741752 0.013777 -15.545700 16.377300 -0.000001 -0.000001 -2.776900 -2.683610 -6.710110 6.456720 -0.000001 -0.000000 -6.483640 -1.021940 -8.889470 12.994200 -0.242716 4.980390 -92.967800 9.706490 -72.907300 5.348090 -0.000007 -0.000001 -54.869400 -12.476000 5.521980 24.328600 0.000019 0.000005 9.477380 21.164800 -24.813900 22.291600 -0.000001 0.000005 5.984560 4.881530 9.744230 12.994500 -0.242716 -4.980390 93.036300 -5.617440 -61.547100 -5.348130 -0.000001 -0.000004 -22.497400 -56.301700 -56.083800 -24.328900 0.000322 -0.000009 -0.001036 -5.483870 -0.000036 -22.291500 -0.000108 -0.000004 47.796400 5.498230 -6.462330 -2.192480 -6.469440 -0.000000 -168.687000 -3.891130 1.424540 39.081100 -0.000007 -0.000012 -0.010424 0.040719 14.359300 40.985400 -0.000006 -0.000013 -3.367260 13.605600 -69.402800 11.754300 -0.000000 0.000003 -0.000883 0.181364 -9.219910 -2.192510 6.469440 -0.000001 -179.859000 11.064200 -176.191000 -39.081100 -0.002282 -0.040193 -0.010169 0.070687 10.817200 -40.985400 0.000008 0.000006 -6.665570 10.093900 -66.747800 -11.754300 -0.000006 -0.000006 -0.008093 0.256461 -6.157700
0.000000 0.000000 0.000000 0.000000 0.000000 -0.000000 -3.789540 92.912900 1.736880 86.020600 1.594440 1.721160 15.735700 0.000005 -0.000001 85.315600 86.480500 -93.079300 8.984550 -0.406207 -0.000000 -0.703433 -0.003398 -15.519800 16.377300 -0.000001 -0.000001 -2.835100 -2.760920 -6.676830 6.456720 -0.000001 -0.000000 -6.705520 -1.053570 -8.949250 12.994200 -0.242716 4.980390 -92.972700 9.718390 -72.900300 5.348090 -0.000007 -0.000001 -54.913800 -12.265500 5.492330 24.328600 0.000019 0.000005 9.520490 20.949400 -25.129400 22.291600 -0.000001 0.000005 5.930650 4.885290 9.669970 12.994500 -0.242716 -4.980390 93.031200 -5.609610 -61.554200 -5.348130 -0.000001 -0.000004 -22.514500 -56.436400 -56.088700 -24.328900 0.000322 -0.000009 -0.001042 -5.468140 -0.000036 -22.291500 -0.000108 -0.000004 47.690200 5.497690 -6.441540 -2.192480 -6.469440 -0.000000 -168.643000 -3.931950 1.333400 39.081100 -0.000007 -0.000012 -0.011000 0.042748 14.429500 40.985400 -0.000006 -0.000013 -3.383930 13.554300 -69.420300 11.754300 -0.000000 0.000003 -0.001044 0.183656 -9.126770 -2.192510 6.469440 -0.000001 -179.794000 11.067000 -176.263000 -39.081100 -0.002282 -0.040193 -0.009752 0.068447 10.826100 -40.985400 0.000008 0.000006 -6.508830 10.160600 -66.792600 -11.754300 -0.000006 -0.000006 -0.008066 0.256241 -6.166680
0.000000 0.000000 0.000000 0.000000 0.000000 -0.000000 -3.788820 92.923600 1.758290 86.034600 1.517850 1.667190 15.735700 0.000005 -0.000001 85.512700 86.454800 -93.282900 8.984550 -0.406207 -0.000000 -0.649021 0.013496 -15.532500 16.377300 -0.000001 -0.000001 -2.805990 -2.879430 -6.586530 6.456720 -0.000001 -0.000000 -6.935510 -1.154680 -9.030270 12.994200 -0.242716 4.980390 -92.969400 9.707270 -72.899900 5.348090 -0.000007 -0.000001 -54.992100 -12.057300 5.334430 24.328600 0.000019 0.000005 9.574090 20.866700 -25.339300 22.291600 -0.000001 0.000005 5.890860 4.891360 9.549770 12.994500 -0.242716 -4.980390 93.008800 -5.566740 -61.549300 -5.348130 -0.000001 -0.000004 -22.632400 -56.608300 -56.186100 -24.328900 0.000322 -0.000009 -0.001038 -5.501010 -0.000036 -22.291500 -0.000108 -0.000004 47.693600 5.493230 -6.263540 -2.192480 -6.469440 -0.000000 -168.673000 -3.876320 1.396510 39.081100 -0.000007 -0.000012 -0.011554 0.045476 14.254900 40.985400 -0.000006 -0.000013 -3.414540 13.433800 -69.358500 11.754300 -0.000000 0.000003 -0.000856 0.180961 -9.236300 -2.192510 6.469440 -0.000001 -179.830000 11.072700 -176.232000 -39.081100 -0.002282 -0.040193 -0.010141 0.071454 10.682500 -40.985400 0.000008 0.000006 -6.669950 10.268200 -66.667400 -11.754300 -0.000006 -0.000006 -0.008024 0.255893 -6.180900
0.000000 0.000000 0.000000 0.000000 0.000000 -0.000000 -3.798490 92.917000 1.785980 85.977200 1.442080 1.595160 15.735700 0.000005 -0.000001 85.700000 86.445900 -93.451300 8.984550 -0.406207 -0.000000 -0.628386 0.032500 -15.494700 16.377300 -0.000001 -0.000001 -2.726790 -2.974000 -6.505600 6.456720 -0.000001 -0.000000 -7.106310 -1.237000 -9.077920 12.994200 -0.242716 4.980390 -92.961900 9.693480 -72.918200 5.348090 -0.000007 -0.000001 -55.077800 -11.939600 5.158990 24.328600 0.000019 0.000005 9.591530 20.804500 -25.443700 22.291600 -0.000001 0.000005 5.953220 4.894480 9.487850 12.994500 -0.242716 -4.980390 92.999800 -5.540840 -61.509500 -5.348130 -0.000001 -0.000004 -22.603600 -56.616300 -56.184900 -24.328900 0.000322 -0.000009 -0.001038 -5.487310 -0.000036 -22.291500 -0.000108 -0.000004 47.653000 5.491470 -6.193650 -2.192480 -6.469440 -0.000000 -168.600000 -4.026640 1.341730 39.081100 -0.000007 -0.000012 -0.011401 0.044665 14.318300 40.985400 -0.000006 -0.000013 -3.405270 13.479500 -69.401000 11.754300 -0.000000 0.000003 -0.000758 0.179536 -9.294180 -2.192510 6.469440 -0.000001 -179.753000 11.072700 -176.288000 -39.081100 -0.002282 -0.040193 -0.010084 0.071283 10.663200 -40.985400 0.000008 0.000006 -6.617430 10.312200 -66.664000 -11.754300 -0.000006 -0.000006 -0.008068 0.256254 -6.166150
0.000000 0.000000 0.000000 0.000000 0.000000 -0.000000 -3.785800 92.922400 1.813790 86.002200 1.396550 1.530490 15.735700 0.000005 -0.000001 85.458700 86.434000 -93.212700 8.984550 -0.406207 -0.000000 -0.609201 -0.000330 -15.500100 16.377300 -0.000001 -0.000001 -2.687230 -3.051000 -6.389350 6.456720 -0.000001 -0.000000 -7.155940 -1.256510 -9.154220 12.994200 -0.242716 4.980390 -92.955400 9.698730 -72.962500 5.348090 -0.000007 -0.000001 -55.117500 -11.700500 5.023660 24.328600 0.000019 0.000005 9.596350 20.767100 -25.493400 22.291600 -0.000001 0.000005 6.031990 4.894600 9.485220 12.994500 -0.242716 -4.980390 92.988700 -5.521540 -61.515100 -5.348130 -0.000001 -0.000004 -22.600000 -56.602600 -56.212000 -24.328900 0.000322 -0.000009 -0.001041 -5.573320 -0.000036 -22.291500 -0.000108 -0.000004 47.700300 5.494320 -6.306670 -2.192480 -6.469440 -0.000000 -168.657000 -3.939790 1.346800 39.081100 -0.000007 -0.000012 -0.011766 0.046406 14.227000 40.985400 -0.000006 -0.000013 -3.428470 13.301500 -69.404100 11.754300 -0.000000 0.000003 -0.000949 0.182305 -9.181690 -2.192510 6.469440 -0.000001 -179.795000 11.112800 -176.297000 -39.081100 -0.002282 -0.040193 -0.010082 0.071746 10.594400 -40.985400 0.000008 0.000006 -6.696570 10.419000 -66.629200 -11.754300 -0.000006 -0.000006 -0.008049 0.256102 -6.172380
0.000000 0.000000 0.000000 0.000000 0.000000 -0.000000 -3.787120 92.918100 1.846710 85.975100 1.338710 1.457720 15.735700 0.000005 -0.000001 85.287300 86.418900 -93.027000 8.984550 -0.406207 -0.000000 -0.582627 -0.026917 -15.471500 16.377300 -0.000001 -0.000001 -2.677410 -3.126180 -6.304590 6.456720 -0.000001 -0.000000 -7.199150 -1.302070 -9.170800 12.994200 -0.242716 4.980390 -92.939400 9.669380 -73.001400 5.348090 -0.000007 -0.000001 -55.202500 -11.610400 4.853130 24.328600 0.000019 0.000005 9.629200 20.817600 -25.519300 22.291600 -0.000001 0.000005 6.042010 4.891940 9.537910 12.994500 -0.242716 -4.980390 92.980600 -5.506250 -61.514400 -5.348130 -0.000001 -0.000004 -22.719900 -56.617500 -56.296100 -24.328900 0.000322 -0.000009 -0.001040 -5.441330 -0.000035 -22.291500 -0.000108 -0.000004 47.691200 5.491320 -6.187770 -2.192480 -6.469440 -0.000000 -168.631000 -4.027330 1.305570 39.081100 -0.000007 -0.000012 -0.011184 0.044033 14.251300 40.985400 -0.000006 -0.000013 -3.409870 13.346700 -69.444900 11.754300 -0.000000 0.000003 -0.000871 0.181183 -9.227250 -2.192510 6.469440 -0.000001 -179.764000 11.113000 -176.326000 -39.081100 -0.002282 -0.040193 -0.010060 0.072019 10.538700 -40.985400 0.000008 0.000006 -6.643600 10.476300 -66.601300 -11.754300 -0.000006 -0.000006 -0.007902 0.254899 -6.221500
0.000000 0.000000 0.000000 0.000000 0.000000 -0.000000 -3.778910 92.925500 1.876190 85.983300 1.266900 1.364960 15.735700 0.000005 -0.000001 85.206600 86.429200 -92.951600 8.984550 -0.406207 -0.000000 -0.604548 -0.033364 -15.482400 16.377300 -0.000001 -0.000001 -2.548650 -3.229740 -6.150010 6.456720 -0.000001 -0.000000 -7.241570 -1.329780 -9.227470 12.994200 -0.242716 4.980390 -92.918400 9.612660 -73.022900 5.348090 -0.000007 -0.000001 -55.269300 -11.661200 4.732740 24.328600 0.000019 0.000005 9.607130 20.808700 -25.476300 22.291600 -0.000001 0.000005 6.053790 4.891950 9.538150 12.994500 -0.242716 -4.980390 92.939700 -5.435310 -61.535700 -5.348130 -0.000001 -0.000004 -22.771400 -56.570200 -56.342600 -24.328900 0.000322 -0.000009 -0.001038 -5.413790 -0.000035 -22.291500 -0.000108 -0.000004 47.728800 5.491280 -6.186420 -2.192480 -6.469440 -0.000000 -168.652000 -4.014860 1.329780 39.081100 -0.000007 -0.000012 -0.010702 0.042595 14.103400 40.985400 -0.000006 -0.000013 -3.431630 13.266000 -69.423900 11.754300 -0.000000 0.000003 -0.000886 0.181400 -9.218460 -2.192510 6.469440 -0.000001 -179.768000 11.029100 -176.360000 -39.081100 -0.002282 -0.040193 -0.010065 0.072749 10.438600 -40.985400 0.000008 0.000006 -6.734880 10.475700 -66.566100 -11.754300 -0.000006 -0.000006 -0.008101 0.256521 -6.155240
0.000000 0.000000 0.000000 0.000000 0.000000 -0.000000 -3.756980 92.929900 1.913420 85.969400 1.145560 1.225020 15.735700 0.000005 -0.000001 85.068300 86.463800 -92.808100 8.984550 -0.406207 -0.000000 -0.675303 -0.040208 -15.472100 16.377300 -0.000001 -0.000001 -2.567450 -3.242920 -6.052980 6.456720 -0.000001 -0.000000 -7.093460 -1.394840 -9.227930 12.994200 -0.242716 4.980390 -92.907100 9.570040 -73.015000 5.348090 -0.000007 -0.000001 -55.290200 -11.819600 4.586480 24.328600 0.000019 0.000005 9.570190 20.903800 -25.292500 22.291600 -0.000001 0.000005 5.928140 4.896200 9.453400 12.994500 -0.242716 -4.980390 92.926600 -5.414710 -61.552500 -5.348130 -0.000001 -0.000004 -22.940800 -56.452100 -56.451400 -24.328900 0.000322 -0.000009 -0.001038 -5.402550 -0.000035 -22.291500 -0.000108 -0.000004 47.811800 5.492530 -6.236410 -2.192480 -6.469440 -0.000000 -168.683000 -4.032960 1.270240 39.081100 -0.000007 -0.000012 -0.009550 0.038126 14.061300 40.985400 -0.000006 -0.000013 -3.427990 13.120500 -69.479500 11.754300 -0.000000 0.000003 -0.000925 0.181962 -9.195620 -2.192510 6.469440 -0.000001 -179.775000 11.001100 -176.412000 -39.081100 -0.002282 -0.040193 -0.010262 0.074883 10.294100 -40.985400 0.000008 0.000006 -6.867380 10.601200 -66.446200 -11.754300 -0.000006 -0.000006 -0.008278 0.257958 -6.096570
0.000000 0.000000 0.000000 0.000000 0.000000 -0.000000 -3.728840 92.932500 1.956750 85.986600 1.070700 1.109280 15.735700 0.000005 -0.000001 84.859700 86.495000 -92.590300 8.984550 -0.406207 -0.000000 -0.741050 -0.056479 -15.454100 16.377300 -0.000001 -0.000001 -2.500340 -3.296210 -6.009780 6.456720 -0.000001 -0.000000 -7.039760 -1.447710 -9.268720 12.994200 -0.242716 4.980390 -92.895000 9.548860 -73.046500 5.348090 -0.000007 -0.000001 -55.277000 -11.820100 4.545010 24.328600 0.000019 0.000005 9.574110 21.009600 -25.195200 22.291600 -0.000001 0.000005 5.895190 4.897230 9.433170 12.994500 -0.242716 -4.980390 92.943200 -5.449210 -61.568500 -5.348130 -0.000001 -0.000004 -23.025100 -56.321300 -56.495300 -24.328900 0.000322 -0.000009 -0.001044 -5.341500 -0.000035 -22.291500 -0.000108 -0.000004 47.846600 5.493050 -6.256250 -2.192480 -6.469440 -0.000000 -168.732000 -4.076840 1.268960 39.081100 -0.000007 -0.000012 -0.008115 0.032652 13.955400 40.985400 -0.000006 -0.000013 -3.423470 13.044200 -69.471700 11.754300 -0.000000 0.000003 -0.000869 0.181149 -9.228650 -2.192510 6.469440 -0.000001 -179.810000 11.018200 -176.472000 -39.081100 -0.002282 -0.040193 -0.010082 0.074384 10.227100 -40.985400 0.000008 0.000006 -6.981720 10.698100 -66.381500 -11.754300 -0.000006 -0.000006 -0.008112 0.256609 -6.151650
